<svg width="64" height="25" viewBox="0 0 64 25" fill="none" xmlns="http://www.w3.org/2000/svg">
<path d="M7.92188 1.25L13 17.0781L18.0625 1.25H25.2812V24H19.7812V18.6875L20.3125 7.8125L14.8125 24H11.1875L5.67188 7.79688L6.20312 18.6875V24H0.71875V1.25H7.92188ZM36.7188 24.3125C34.125 24.3125 32.026 23.5417 30.4219 22C28.8177 20.4479 28.0156 18.4323 28.0156 15.9531V15.5156C28.0156 13.7865 28.3333 12.2604 28.9688 10.9375C29.6146 9.61458 30.5521 8.59375 31.7812 7.875C33.0104 7.14583 34.4688 6.78125 36.1562 6.78125C38.5312 6.78125 40.4062 7.52083 41.7812 9C43.1562 10.4688 43.8438 12.5208 43.8438 15.1562V17.2031H33.375C33.5625 18.151 33.974 18.8958 34.6094 19.4375C35.2448 19.9792 36.0677 20.25 37.0781 20.25C38.7448 20.25 40.0469 19.6667 40.9844 18.5L43.3906 21.3438C42.7344 22.25 41.8021 22.974 40.5938 23.5156C39.3958 24.0469 38.1042 24.3125 36.7188 24.3125ZM36.125 10.8438C34.5833 10.8438 33.6667 11.8646 33.375 13.9062H38.6875V13.5C38.7083 12.6562 38.4948 12.0052 38.0469 11.5469C37.599 11.0781 36.9583 10.8438 36.125 10.8438ZM57.9531 17.9531C57.9531 17.151 57.6667 16.526 57.0938 16.0781C56.5312 15.6302 55.5365 15.1667 54.1094 14.6875C52.6823 14.2083 51.5156 13.7448 50.6094 13.2969C47.6615 11.849 46.1875 9.85938 46.1875 7.32812C46.1875 6.06771 46.5521 4.95833 47.2812 4C48.0208 3.03125 49.0625 2.28125 50.4062 1.75C51.75 1.20833 53.2604 0.9375 54.9375 0.9375C56.5729 0.9375 58.0365 1.22917 59.3281 1.8125C60.6302 2.39583 61.6406 3.22917 62.3594 4.3125C63.0781 5.38542 63.4375 6.61458 63.4375 8H57.9688C57.9688 7.07292 57.6823 6.35417 57.1094 5.84375C56.5469 5.33333 55.7812 5.07812 54.8125 5.07812C53.8333 5.07812 53.0573 5.29688 52.4844 5.73438C51.9219 6.16146 51.6406 6.70833 51.6406 7.375C51.6406 7.95833 51.9531 8.48958 52.5781 8.96875C53.2031 9.4375 54.3021 9.92708 55.875 10.4375C57.4479 10.9375 58.7396 11.4792 59.75 12.0625C62.2083 13.4792 63.4375 15.4323 63.4375 17.9219C63.4375 19.9115 62.6875 21.474 61.1875 22.6094C59.6875 23.7448 57.6302 24.3125 55.0156 24.3125C53.1719 24.3125 51.5 23.9844 50 23.3281C48.5104 22.6615 47.3854 21.7552 46.625 20.6094C45.875 19.4531 45.5 18.125 45.5 16.625H51C51 17.8438 51.3125 18.7448 51.9375 19.3281C52.5729 19.901 53.599 20.1875 55.0156 20.1875C55.9219 20.1875 56.6354 19.9948 57.1562 19.6094C57.6875 19.2135 57.9531 18.6615 57.9531 17.9531Z" fill="#2B2D42"/>
</svg>
